<?xml version="1.0" encoding="UTF-8" standalone="no"?><!-- Generator: Gravit.io --><svg xmlns="http://www.w3.org/2000/svg" xmlns:xlink="http://www.w3.org/1999/xlink" style="isolation:isolate" viewBox="0 0 852 757" width="852pt" height="757pt"><path d=" M 773.894 561.694 L 822.589 495.172 L 822.032 493.371 Q 821.865 493.436 773.608 561.188 L 773.894 561.694 Z " fill="rgb(197,197,197)"/><path d=" M 393.055 448.914 L 397.202 468.962 L 495.687 437.019 L 393.055 448.914 Z  M 396.883 469.932 L 396.671 469.875 L 396.471 469.596 L 392.133 448.631 L 392.203 448.298 L 392.497 448.127 L 499.809 435.692 C 500.037 435.657 500.224 435.809 500.271 436.019 C 500.316 436.234 500.194 436.446 499.987 436.513 L 397.014 469.913 L 396.883 469.932 Z " fill="rgb(197,197,197)"/><path d=" M 62.536 693.114 L 112.525 725.007 L 147.882 633.15 L 62.536 693.114 Z  M 112.732 726.062 L 112.507 725.996 L 61.549 693.487 L 61.353 693.138 L 61.533 692.785 L 148.532 631.661 L 149.034 631.673 C 149.182 631.789 149.236 631.985 149.169 632.158 L 113.128 725.79 L 112.865 726.042 L 112.732 726.062 Z " fill="rgb(197,197,197)"/><path d=" M 113.344 725.227 L 265.987 727.661 L 148.96 632.7 L 113.344 725.227 Z  M 267.2 728.525 L 267.195 728.525 L 112.726 726.062 L 112.382 725.877 L 112.339 725.488 L 148.381 631.855 L 148.665 631.598 L 149.041 631.679 L 267.468 727.776 C 267.607 727.888 267.659 728.079 267.598 728.246 C 267.537 728.416 267.378 728.527 267.2 728.525 Z " fill="rgb(197,197,197)"/><path d=" M 500.675 435.983 L 677.41 506.942 L 590.151 362.239 L 500.675 435.983 Z  M 678.42 508.226 L 678.265 508.196 L 499.701 436.504 L 499.439 436.174 L 499.589 435.785 L 589.991 361.275 L 590.33 361.184 L 590.619 361.382 L 678.783 507.585 L 678.746 508.079 L 678.42 508.226 Z " fill="rgb(197,197,197)"/><path d=" M 590.866 361.79 L 677.862 506.055 L 663.961 329.104 L 590.866 361.79 Z  M 678.42 508.226 L 678.061 508.023 L 589.897 361.819 L 589.856 361.475 L 590.086 361.216 L 664.162 328.088 L 664.55 328.11 L 664.755 328.439 L 678.843 507.771 C 678.859 507.967 678.738 508.147 678.551 508.206 L 678.42 508.226 Z " fill="rgb(197,197,197)"/><path d=" M 664.791 328.891 L 678.648 505.297 L 725.468 328.378 L 664.791 328.891 Z  M 678.42 508.226 L 678.386 508.224 C 678.178 508.206 678.016 508.043 678.002 507.837 L 663.912 328.508 L 664.024 328.187 L 664.332 328.05 L 726.016 327.528 L 726.352 327.69 L 726.426 328.058 L 678.832 507.911 C 678.782 508.1 678.612 508.228 678.42 508.226 Z " fill="rgb(197,197,197)"/><path d=" M 725.342 270.716 L 665.398 328.041 L 725.592 327.532 L 725.342 270.716 Z  M 664.332 328.895 C 664.161 328.895 664.008 328.79 663.943 328.632 L 664.044 328.169 L 725.468 269.426 L 725.926 269.343 C 726.08 269.409 726.181 269.561 726.181 269.73 L 726.441 327.948 C 726.442 328.182 726.255 328.371 726.023 328.373 L 664.339 328.895 L 664.332 328.895 Z " fill="rgb(197,197,197)"/><path d=" M 726.181 269.058 L 725.89 1.675 L 842.997 186.2 L 843.511 184.832 L 725.803 0.166 C 725.693 0.022 725.502 -0.036 725.331 0.023 C 725.16 0.08 725.045 0.242 725.045 0.423 L 725.339 269.732 L 725.535 270.089 L 725.758 270.154 L 725.944 270.112 L 726.181 269.058 Z " fill="rgb(197,197,197)"/><path d=" M 726.183 270.205 L 726.437 327.202 L 805.565 279.22 L 726.183 270.205 Z  M 726.016 328.373 L 725.81 328.319 L 725.594 327.951 L 725.339 269.733 L 725.477 269.418 L 725.807 269.312 L 806.891 278.52 C 807.069 278.541 807.217 278.673 807.256 278.85 C 807.294 279.026 807.215 279.208 807.062 279.301 L 726.237 328.311 L 726.016 328.373 Z " fill="rgb(197,197,197)"/><path d=" M 842.997 187.891 L 806.666 278.495 L 727.256 269.476 L 844.292 184.832 L 843.511 184.832 L 725.576 269.351 C 725.407 269.433 725.312 269.617 725.344 269.803 C 725.375 269.988 725.524 270.13 725.713 270.152 L 806.795 279.36 L 806.84 279.362 L 807.166 279.213 L 842.997 189.598 L 842.997 187.891 Z " fill="rgb(197,197,197)"/><path d=" M 267.083 728.509 L 397.942 757 L 397.942 756.093 L 268.336 727.994 L 438.049 640.633 L 397.047 756.088 L 397.942 756.093 L 439.203 639.91 C 439.261 639.747 439.212 639.566 439.082 639.452 L 438.609 639.393 L 267.008 727.726 C 266.855 727.807 266.764 727.971 266.781 728.144 C 266.797 728.317 266.917 728.461 267.083 728.509 Z " fill="rgb(197,197,197)"/><path d=" M 397.942 756.093 L 439.045 640.354 L 550.332 694.359 L 397.942 756.088 L 397.942 757 L 551.504 694.758 C 551.654 694.69 551.749 694.542 551.751 694.378 C 551.755 694.215 551.661 694.063 551.515 693.991 L 438.987 639.389 L 438.643 639.378 L 438.405 639.627 L 397.049 756.088 L 397.942 756.093 Z " fill="rgb(197,197,197)"/><path d=" M 399.399 470.874 L 446.235 506.154 L 473.746 497.932 L 399.399 470.874 Z  M 446.15 507.041 L 445.896 506.957 L 396.631 469.848 C 396.463 469.722 396.413 469.493 396.514 469.308 C 396.613 469.124 396.834 469.041 397.031 469.113 L 475.235 497.574 C 475.406 497.635 475.52 497.802 475.515 497.982 C 475.509 498.164 475.387 498.325 475.214 498.375 L 446.272 507.023 L 446.15 507.041 Z " fill="rgb(197,197,197)"/><path d=" M 398.183 469.533 L 474.85 497.433 L 499.13 436.792 L 398.183 469.533 Z  M 475.09 498.393 L 474.946 498.368 L 396.741 469.907 C 396.572 469.846 396.458 469.682 396.462 469.504 C 396.465 469.322 396.582 469.163 396.753 469.108 L 499.728 435.71 L 500.165 435.821 L 500.25 436.268 L 475.484 498.128 C 475.417 498.292 475.257 498.395 475.09 498.393 Z " fill="rgb(197,197,197)"/><path d=" M 446.557 506.939 L 439.464 635.487 L 474.497 498.589 L 446.557 506.939 Z  M 438.802 640.192 L 438.74 640.187 C 438.526 640.154 438.369 639.962 438.382 639.746 L 445.73 506.595 C 445.738 506.418 445.86 506.265 446.031 506.213 L 474.971 497.567 L 475.383 497.666 L 475.502 498.074 L 439.212 639.874 C 439.165 640.063 438.992 640.192 438.802 640.192 Z " fill="rgb(197,197,197)"/><path d=" M 475.704 497.577 L 675.935 507.261 L 500.091 436.66 L 475.704 497.577 Z  M 678.42 508.226 L 678.402 508.226 L 475.07 498.393 L 474.737 498.199 L 474.699 497.813 L 499.465 435.953 L 499.69 435.722 L 500.014 435.719 L 678.58 507.412 C 678.771 507.488 678.879 507.693 678.836 507.895 C 678.792 508.089 678.618 508.228 678.42 508.226 Z " fill="rgb(197,197,197)"/><path d=" M 479.561 275.72 L 500.178 435.299 L 589.584 361.61 L 479.561 275.72 Z  M 499.855 436.533 L 499.701 436.504 L 499.439 436.165 L 478.592 274.808 C 478.568 274.638 478.651 274.472 478.801 274.388 L 479.271 274.421 L 590.519 361.268 L 590.682 361.596 L 590.529 361.927 L 500.127 436.435 L 499.855 436.533 Z " fill="rgb(197,197,197)"/><path d=" M 479.822 274.853 L 589.728 360.652 L 575.564 231.895 L 479.822 274.853 Z  M 590.256 362.023 L 590 361.933 L 478.748 275.087 L 478.59 274.703 L 478.835 274.368 L 575.748 230.887 L 576.13 230.905 L 576.342 231.225 L 590.681 361.555 C 590.697 361.724 590.612 361.888 590.465 361.97 L 590.256 362.023 Z " fill="rgb(197,197,197)"/><path d=" M 530.181 39.541 L 576.101 230.217 L 724.57 1.031 L 530.181 39.541 Z  M 575.917 231.695 L 575.849 231.689 C 575.681 231.661 575.55 231.535 575.51 231.371 L 529.256 39.31 L 529.312 38.984 L 529.585 38.797 L 725.385 0.008 C 725.549 -0.025 725.724 0.045 725.816 0.185 L 725.821 0.652 L 576.276 231.502 L 575.917 231.695 Z " fill="rgb(197,197,197)"/><path d=" M 576.483 232.518 L 590.614 360.978 L 663.628 328.326 L 576.483 232.518 Z  M 590.256 362.023 L 590.049 361.969 L 589.84 361.648 L 575.501 231.319 C 575.48 231.136 575.581 230.963 575.748 230.887 C 575.912 230.812 576.11 230.853 576.232 230.988 L 664.647 328.189 L 664.748 328.56 L 664.508 328.859 L 590.43 361.987 L 590.256 362.023 Z " fill="rgb(197,197,197)"/><path d=" M 577.183 232.033 L 664.357 327.868 L 724.917 269.952 L 577.183 232.033 Z  M 664.332 328.895 L 664.319 328.895 L 664.022 328.758 L 575.608 231.556 L 575.559 231.054 C 575.656 230.895 575.842 230.816 576.025 230.862 L 725.866 269.322 L 726.169 269.625 L 726.052 270.037 L 664.627 328.778 L 664.332 328.895 Z " fill="rgb(197,197,197)"/><path d=" M 576.594 231.009 L 725.337 269.186 L 725.047 1.85 L 576.594 231.009 Z  M 725.758 270.154 L 725.656 270.141 L 575.817 231.682 L 575.528 231.426 L 575.566 231.043 L 725.114 0.193 C 725.213 0.035 725.403 -0.035 725.585 0.017 C 725.765 0.07 725.89 0.235 725.89 0.422 L 726.181 269.731 L 726.019 270.065 L 725.758 270.154 Z " fill="rgb(197,197,197)"/><path d=" M 475.351 498.663 L 439.378 639.233 L 627.955 604.074 L 475.351 498.663 Z  M 438.802 640.192 L 438.495 640.057 L 438.393 639.665 L 474.683 497.867 L 474.944 497.576 L 475.331 497.622 L 629.27 603.955 C 629.41 604.05 629.477 604.223 629.443 604.39 C 629.407 604.558 629.275 604.686 629.106 604.716 L 438.881 640.185 L 438.802 640.192 Z " fill="rgb(197,197,197)"/><path d=" M 440.143 639.949 L 551.22 693.851 L 627.923 604.938 L 440.143 639.949 Z  M 551.328 694.794 L 551.146 694.753 L 438.62 640.149 C 438.456 640.07 438.36 639.893 438.384 639.713 C 438.409 639.531 438.546 639.387 438.728 639.353 L 628.951 603.886 C 629.129 603.854 629.308 603.935 629.398 604.092 L 629.349 604.578 L 551.65 694.647 L 551.328 694.794 Z " fill="rgb(197,197,197)"/><path d=" M 476.55 498.465 L 628.874 603.681 L 677.748 508.194 L 476.55 498.465 Z  M 629.027 604.724 L 628.791 604.65 L 474.85 498.319 C 474.695 498.211 474.63 498.013 474.692 497.835 C 474.751 497.657 474.933 497.547 475.111 497.549 L 678.443 507.382 L 678.789 507.592 L 678.798 507.998 L 629.405 604.495 L 629.133 604.713 L 629.027 604.724 Z " fill="rgb(197,197,197)"/><path d=" M 552.052 694.18 L 603.719 712.513 L 628.236 605.869 L 552.052 694.18 Z  M 604.023 713.492 L 603.885 713.467 L 551.188 694.771 L 550.921 694.481 L 551.009 694.098 L 628.712 604.027 C 628.836 603.879 629.047 603.839 629.221 603.926 C 629.396 604.012 629.484 604.207 629.443 604.396 L 604.436 713.164 L 604.229 713.44 L 604.023 713.492 Z " fill="rgb(197,197,197)"/><path d=" M 629.273 605.125 L 604.565 712.597 L 729.26 701.646 L 629.273 605.125 Z  M 604.023 713.492 L 603.706 713.346 L 603.613 712.975 L 628.618 604.207 L 628.91 603.897 L 629.322 603.998 L 730.515 701.684 L 730.62 702.128 C 730.566 702.285 730.424 702.393 730.258 702.407 L 604.061 713.49 L 604.023 713.492 Z " fill="rgb(197,197,197)"/><path d=" M 678.567 508.45 L 630.005 603.324 L 770.667 560.648 L 678.567 508.45 Z  M 629.027 604.724 L 628.73 604.601 C 628.602 604.471 628.571 604.273 628.652 604.11 L 678.047 507.612 L 678.33 507.393 L 678.681 507.47 L 774.132 561.188 L 629.223 604.679 L 629.027 604.724 Z " fill="rgb(197,197,197)"/><path d=" M 629.844 604.5 L 730.02 701.206 L 773.091 561.694 L 629.844 604.5 Z  M 730.22 702.409 L 729.928 702.289 L 628.735 604.605 L 628.62 604.201 L 628.91 603.897 L 773.608 560.659 L 774.029 560.765 L 774.132 561.188 L 730.625 702.112 L 730.326 702.395 L 730.22 702.409 Z " fill="rgb(197,197,197)"/><path d=" M 123.836 588.484 L 6.43 657.235 L 148.116 631.695 L 123.836 588.484 Z  M 4.161 658.496 C 3.987 658.496 3.828 658.388 3.767 658.22 C 3.695 658.027 3.772 657.811 3.949 657.709 L 123.78 587.538 L 124.103 587.495 L 124.362 587.695 L 149.142 631.8 L 149.157 632.187 L 148.849 632.421 L 4.237 658.488 L 4.161 658.496 Z " fill="rgb(197,197,197)"/><path d=" M 124.647 588.205 L 148.843 631.265 L 196.88 573.85 L 124.647 588.205 Z  M 148.773 632.428 L 148.735 632.426 L 148.406 632.212 L 123.626 588.109 L 123.609 587.726 L 123.91 587.488 L 197.892 572.788 C 198.065 572.753 198.247 572.831 198.337 572.986 L 198.297 573.474 L 149.099 632.278 L 148.773 632.428 Z " fill="rgb(197,197,197)"/><path d=" M 358.116 335.291 L 358.013 335.276 C 357.786 335.219 357.651 334.988 357.709 334.761 L 380.949 245.251 C 381.007 245.026 381.236 244.887 381.464 244.948 C 381.689 245.006 381.826 245.237 381.767 245.463 L 358.526 334.974 C 358.477 335.165 358.305 335.291 358.116 335.291 Z " fill="rgb(197,197,197)"/><path d=" M 381.657 245.888 L 358.76 334.077 L 477.866 274.851 L 381.657 245.888 Z  M 358.116 335.291 L 357.851 335.195 L 357.709 334.761 L 380.949 245.251 L 381.151 244.989 L 381.479 244.953 L 479.13 274.35 C 479.296 274.399 479.416 274.546 479.429 274.718 C 479.445 274.891 479.352 275.056 479.197 275.132 L 358.306 335.246 L 358.116 335.291 Z " fill="rgb(197,197,197)"/><path d=" M 358.883 335.933 L 392.848 448.085 L 498.719 435.818 L 358.883 335.933 Z  M 392.544 448.968 C 392.362 448.968 392.196 448.849 392.142 448.669 L 357.714 334.99 C 357.662 334.817 357.725 334.63 357.872 334.525 L 358.364 334.524 L 500.102 435.767 C 500.244 435.868 500.309 436.046 500.266 436.216 C 500.223 436.387 500.079 436.509 499.906 436.531 L 392.596 448.966 L 392.544 448.968 Z " fill="rgb(197,197,197)"/><path d=" M 358.937 334.932 L 499.313 435.204 L 478.667 275.397 L 358.937 334.932 Z  M 499.855 436.533 L 499.61 436.455 L 357.872 335.211 L 357.696 334.835 L 357.93 334.489 L 478.82 274.376 L 479.208 274.382 L 479.427 274.7 L 500.277 436.057 C 500.298 436.223 500.217 436.387 500.073 436.473 L 499.855 436.533 Z " fill="rgb(197,197,197)"/><path d=" M 392.3 449.436 L 322.29 525.006 L 396.417 469.333 L 392.3 449.436 Z  M 318.788 528.59 L 318.477 528.451 C 318.329 528.287 318.331 528.039 318.48 527.88 L 392.237 448.258 L 392.661 448.139 L 392.961 448.462 L 397.299 469.425 L 397.139 469.848 L 319.044 528.505 L 318.788 528.59 Z " fill="rgb(197,197,197)"/><path d=" M 396.885 470.039 L 320.434 527.459 L 445.115 506.366 L 396.885 470.039 Z  M 318.788 528.59 C 318.621 528.588 318.468 528.49 318.401 528.334 C 318.324 528.154 318.379 527.947 318.534 527.828 L 396.631 469.172 L 397.139 469.172 L 446.407 506.282 C 446.541 506.382 446.602 506.555 446.561 506.719 C 446.523 506.883 446.388 507.007 446.222 507.034 L 318.86 528.582 L 318.788 528.59 Z " fill="rgb(197,197,197)"/><path d=" M 319.703 528.44 L 438.432 638.845 L 445.702 507.124 L 319.703 528.44 Z  M 438.802 640.192 L 438.517 640.079 L 318.502 528.476 L 318.385 528.046 L 318.718 527.75 L 446.081 506.202 L 446.433 506.303 L 446.573 506.642 L 439.225 639.792 C 439.216 639.956 439.115 640.099 438.962 640.162 L 438.802 640.192 Z " fill="rgb(197,197,197)"/><path d=" M 825.275 414.873 L 679.106 506.876 L 726.302 328.529 L 726.181 327.561 L 725.832 327.571 L 725.609 327.843 L 678.015 507.697 C 677.97 507.863 678.033 508.043 678.171 508.145 L 678.42 508.226 L 678.648 508.161 L 825.27 415.874 L 825.275 414.873 Z " fill="rgb(197,197,197)"/><path d=" M 824.883 491.684 L 680.192 507.189 L 825.27 415.876 L 825.275 414.873 L 678.196 507.447 C 678.031 507.551 677.959 507.756 678.022 507.942 C 678.083 508.113 678.241 508.226 678.42 508.226 L 678.467 508.224 L 824.879 492.534 L 824.883 491.684 Z " fill="rgb(197,197,197)"/><path d=" M 820.9 412.343 L 728.445 328.517 L 726.043 327.53 C 725.812 327.51 725.654 327.654 725.607 327.854 C 725.56 328.056 725.663 328.259 725.854 328.34 L 818.395 412.343 L 820.9 412.343 Z " fill="rgb(197,197,197)"/><path d=" M 824.2 414.347 L 807.166 278.52 Q 806.475 279.281 806.666 279.362 L 822.59 412.343 L 824.2 414.347 Z " fill="rgb(197,197,197)"/><path d=" M 828.109 492.534 L 824.13 417.168 Q 822.68 417.929 822.871 418.01 L 826.716 487.969 L 828.109 492.534 Z " fill="rgb(197,197,197)"/><path d=" M 198.173 573.623 L 150.183 630.982 L 293.028 573.29 L 198.173 573.623 Z  M 148.773 632.428 L 148.433 632.253 L 148.451 631.735 L 197.651 572.93 L 197.973 572.78 L 295.222 572.438 L 295.225 572.438 C 295.425 572.44 295.6 572.582 295.637 572.78 C 295.675 572.979 295.569 573.177 295.382 573.252 L 148.932 632.399 L 148.773 632.428 Z " fill="rgb(197,197,197)"/><path d=" M 149.598 632.129 L 266.912 727.324 L 294.671 573.54 L 149.598 632.129 Z  M 267.2 728.525 L 266.936 728.432 L 148.508 632.334 L 148.357 631.944 L 148.616 631.614 L 295.065 572.469 L 295.49 572.532 L 295.637 572.935 L 267.618 728.178 L 267.35 728.498 L 267.2 728.525 Z " fill="rgb(197,197,197)"/><path d=" M 317.899 528.95 L 200.341 572.771 L 294.968 572.44 L 317.899 528.95 Z  M 197.973 573.625 C 197.77 573.623 197.595 573.477 197.559 573.277 C 197.523 573.076 197.635 572.878 197.828 572.806 L 318.64 527.77 C 318.806 527.711 318.992 527.756 319.107 527.887 L 319.163 528.363 L 295.596 573.058 L 295.223 573.283 L 197.975 573.625 L 197.973 573.625 Z " fill="rgb(197,197,197)"/><path d=" M 295.54 573.475 L 267.769 727.335 L 437.844 639.789 L 295.54 573.475 Z  M 267.2 728.525 L 266.95 728.443 L 266.786 728.029 L 294.807 572.786 L 295.029 572.487 L 295.402 572.478 L 438.982 639.386 L 439.227 639.76 L 438.998 640.144 L 267.397 728.479 L 267.2 728.525 Z " fill="rgb(197,197,197)"/><path d=" M 295.803 572.665 L 436.556 638.255 L 318.905 528.852 L 295.803 572.665 Z  M 438.802 640.192 L 438.625 640.153 L 295.045 573.243 L 294.822 572.995 L 294.849 572.663 L 318.415 527.97 L 318.718 527.75 L 319.078 527.857 L 439.091 639.459 C 439.245 639.602 439.272 639.832 439.155 640.005 L 438.802 640.192 Z " fill="rgb(197,197,197)"/><path d=" M 381.356 245.779 L 381.007 245.592 C 380.875 245.398 380.93 245.135 381.124 245.005 L 478.702 179.748 C 478.894 179.618 479.157 179.669 479.287 179.864 C 479.418 180.057 479.364 180.32 479.172 180.449 L 381.592 245.708 L 381.356 245.779 Z " fill="rgb(197,197,197)"/><path d=" M 382.338 245.21 L 478.586 274.186 L 478.514 180.889 L 382.338 245.21 Z  M 479.008 275.176 L 478.889 275.159 L 381.236 245.762 C 381.079 245.714 380.964 245.581 380.94 245.419 L 381.124 245.005 L 478.702 179.748 L 479.134 179.726 L 479.359 180.099 L 479.431 274.754 L 479.262 275.093 L 479.008 275.176 Z " fill="rgb(197,197,197)"/><path d=" M 479.359 180.8 L 479.431 274.102 L 574.956 231.241 L 479.359 180.8 Z  M 479.008 275.176 L 478.779 275.109 L 478.588 274.754 L 478.514 180.099 L 478.718 179.737 L 479.134 179.725 L 576.119 230.898 L 576.344 231.286 L 576.094 231.657 L 479.182 275.139 L 479.008 275.176 Z " fill="rgb(197,197,197)"/><path d=" M 479.458 179.896 L 575.291 230.461 L 529.587 40.682 L 479.458 179.896 Z  M 575.917 231.695 L 575.723 231.646 L 478.739 180.472 C 478.552 180.374 478.466 180.154 478.538 179.955 L 529.269 39.069 C 529.332 38.893 529.51 38.765 529.688 38.79 C 529.875 38.8 530.034 38.931 530.077 39.113 L 576.332 231.174 L 576.18 231.606 L 575.917 231.695 Z " fill="rgb(197,197,197)"/><path d=" M 824.135 638.078 L 730.98 700.965 L 773.894 561.962 L 824.193 626.686 L 824.2 625.317 L 774.062 560.803 L 773.653 560.648 L 773.325 560.938 L 729.819 701.862 C 729.766 702.033 729.826 702.218 729.97 702.326 L 730.22 702.409 L 730.458 702.337 L 824.13 639.101 L 824.135 638.078 Z " fill="rgb(197,197,197)"/><path d=" M 731.245 701.806 L 827.414 636.789 L 827.471 635.487 L 729.986 701.635 C 729.847 701.73 729.777 701.896 729.806 702.062 C 729.837 702.224 729.959 702.357 730.119 702.397 L 731.245 701.806 Z " fill="rgb(197,197,197)"/><path d=" M 827.471 629.061 L 827.776 497.393 L 826.082 495.704 Q 825.905 495.638 826.716 629.587 L 827.471 629.061 Z " fill="rgb(197,197,197)"/><path d=" M 63.022 693.487 L 3.984 659.035 L 3.984 659.736 Q 3.842 659.86 62.536 693.851 L 63.022 693.487 Z " fill="rgb(197,197,197)"/><path d=" M 590.288 356.005 C 587.196 355.989 584.677 358.481 584.661 361.573 C 584.645 364.664 587.139 367.183 590.231 367.198 C 593.32 367.214 595.841 364.72 595.857 361.63 C 595.872 358.538 593.38 356.019 590.288 356.005 Z " fill="rgb(197,197,197)"/><path d=" M 590.297 354.314 C 586.278 354.293 582.992 357.545 582.97 361.564 C 582.952 365.583 586.203 368.869 590.222 368.888 C 594.241 368.908 597.525 365.656 597.546 361.637 C 597.568 357.62 594.314 354.334 590.297 354.314 Z  M 590.288 356.005 C 593.38 356.019 595.872 358.538 595.857 361.63 C 595.841 364.72 593.32 367.214 590.231 367.198 C 587.139 367.183 584.645 364.664 584.661 361.573 C 584.677 358.481 587.196 355.989 590.288 356.005 Z " fill="rgb(55,53,53)"/><path d=" M 666.732 328.484 C 666.739 327.161 665.669 326.082 664.348 326.075 C 663.023 326.07 661.944 327.137 661.939 328.461 C 661.931 329.784 662.999 330.863 664.323 330.87 C 665.644 330.875 666.725 329.81 666.732 328.484 Z " fill="rgb(197,197,197)"/><path d=" M 664.357 324.386 C 662.102 324.374 660.259 326.197 660.246 328.452 C 660.235 330.706 662.059 332.548 664.314 332.559 C 666.568 332.572 668.41 330.748 668.421 328.493 C 668.432 326.241 666.609 324.397 664.357 324.386 Z  M 664.348 326.075 C 665.669 326.082 666.739 327.161 666.732 328.484 C 666.725 329.81 665.644 330.875 664.323 330.87 C 662.999 330.863 661.931 329.784 661.939 328.461 C 661.944 327.137 663.023 326.07 664.348 326.075 Z " fill="rgb(55,53,53)"/><path d=" M 725.731 275.247 C 728.778 275.262 731.259 272.805 731.275 269.76 C 731.29 266.713 728.834 264.232 725.789 264.216 C 722.74 264.2 720.259 266.657 720.245 269.703 C 720.228 272.749 722.684 275.231 725.731 275.247 Z " fill="rgb(197,197,197)"/><path d=" M 725.796 262.526 C 721.824 262.506 718.575 265.721 718.554 269.695 C 718.534 273.668 721.75 276.916 725.724 276.937 C 729.696 276.957 732.944 273.741 732.964 269.768 C 732.986 265.795 729.77 262.547 725.796 262.526 Z  M 725.789 264.216 C 728.834 264.232 731.29 266.713 731.275 269.76 C 731.259 272.805 728.778 275.262 725.731 275.247 C 722.684 275.231 720.228 272.749 720.245 269.703 C 720.259 266.657 722.74 264.2 725.789 264.216 Z " fill="rgb(55,53,53)"/><path d=" M 475.117 492.988 C 472.365 492.973 470.122 495.193 470.109 497.945 C 470.095 500.698 472.313 502.94 475.066 502.954 C 477.818 502.968 480.061 500.748 480.075 497.995 C 480.09 495.244 477.868 493.002 475.117 492.988 Z " fill="rgb(197,197,197)"/><path d=" M 475.126 491.297 C 471.447 491.279 468.436 494.257 468.418 497.937 C 468.398 501.616 471.378 504.625 475.057 504.643 C 478.738 504.663 481.746 501.685 481.765 498.004 C 481.784 494.325 478.806 491.317 475.126 491.297 Z  M 475.117 492.988 C 477.868 493.002 480.09 495.244 480.075 497.995 C 480.061 500.748 477.818 502.968 475.066 502.954 C 472.313 502.94 470.095 500.698 470.109 497.945 C 470.122 495.193 472.365 492.973 475.117 492.988 Z " fill="rgb(55,53,53)"/><path d=" M 629.045 601.194 C 627.329 601.187 625.932 602.57 625.923 604.286 C 625.914 606 627.296 607.399 629.014 607.408 C 630.73 607.417 632.127 606.033 632.136 604.317 C 632.145 602.602 630.761 601.203 629.045 601.194 Z " fill="rgb(197,197,197)"/><path d=" M 629.054 599.504 C 626.409 599.491 624.246 601.632 624.232 604.277 C 624.221 606.922 626.36 609.085 629.005 609.099 C 631.649 609.112 633.813 606.971 633.825 604.326 C 633.84 601.68 631.699 599.518 629.054 599.504 Z  M 629.045 601.194 C 630.761 601.203 632.145 602.602 632.136 604.317 C 632.127 606.033 630.73 607.417 629.014 607.408 C 627.296 607.399 625.915 606 625.923 604.286 C 625.932 602.57 627.329 601.187 629.045 601.194 Z " fill="rgb(55,53,53)"/><path d=" M 4.176 655.6 C 2.809 655.593 1.696 656.695 1.689 658.06 C 1.682 659.427 2.784 660.539 4.151 660.547 C 5.517 660.554 6.63 659.452 6.637 658.087 C 6.644 656.72 5.542 655.607 4.176 655.6 Z " fill="rgb(197,197,197)"/><path d=" M 4.185 653.909 C 1.889 653.897 0.011 655.757 0 658.053 C -0.013 660.347 1.846 662.225 4.142 662.237 C 6.437 662.25 8.315 660.39 8.328 658.094 C 8.339 655.798 6.481 653.922 4.185 653.909 Z  M 4.176 655.6 C 5.542 655.607 6.644 656.72 6.637 658.087 C 6.63 659.452 5.517 660.554 4.151 660.547 C 2.784 660.539 1.682 659.427 1.689 658.06 C 1.696 656.695 2.809 655.593 4.176 655.6 Z " fill="rgb(55,53,53)"/><path d=" M 124.015 583.901 C 121.805 583.89 120.005 585.673 119.994 587.882 C 119.981 590.092 121.764 591.892 123.973 591.903 C 126.182 591.914 127.983 590.131 127.994 587.924 C 128.005 585.714 126.224 583.914 124.015 583.901 Z " fill="rgb(197,197,197)"/><path d=" M 124.022 582.212 C 120.885 582.196 118.319 584.735 118.303 587.873 C 118.287 591.012 120.827 593.576 123.964 593.594 C 127.103 593.61 129.668 591.069 129.685 587.931 C 129.701 584.794 127.16 582.228 124.022 582.212 Z  M 124.015 583.901 C 126.224 583.914 128.005 585.714 127.994 587.924 C 127.983 590.131 126.182 591.914 123.973 591.903 C 121.764 591.892 119.981 590.092 119.994 587.882 C 120.005 585.673 121.805 583.89 124.015 583.901 Z " fill="rgb(55,53,53)"/><path d=" M 358.13 332.453 C 356.796 332.446 355.71 333.522 355.703 334.855 C 355.696 336.189 356.772 337.277 358.105 337.284 C 359.439 337.289 360.527 336.214 360.534 334.88 C 360.541 333.546 359.464 332.46 358.13 332.453 Z " fill="rgb(197,197,197)"/><path d=" M 358.139 330.762 C 355.876 330.751 354.025 332.584 354.014 334.848 C 354.001 337.111 355.834 338.962 358.098 338.973 C 360.361 338.984 362.212 337.152 362.225 334.889 C 362.235 332.626 360.402 330.775 358.139 330.762 Z  M 358.13 332.453 C 359.464 332.46 360.541 333.546 360.534 334.88 C 360.527 336.214 359.439 337.289 358.105 337.284 C 356.772 337.277 355.696 336.189 355.703 334.855 C 355.71 333.522 356.796 332.446 358.13 332.453 Z " fill="rgb(55,53,53)"/><path d=" M 499.886 430.605 C 496.845 430.589 494.367 433.041 494.351 436.082 C 494.336 439.124 496.789 441.601 499.828 441.616 C 502.87 441.632 505.347 439.179 505.363 436.138 C 505.38 433.097 502.925 430.619 499.886 430.605 Z " fill="rgb(197,197,197)"/><path d=" M 499.895 428.914 C 495.926 428.894 492.682 432.107 492.662 436.073 C 492.64 440.042 495.853 443.287 499.821 443.306 C 503.788 443.326 507.033 440.114 507.052 436.147 C 507.074 432.179 503.862 428.934 499.895 428.914 Z  M 499.886 430.605 C 502.925 430.619 505.38 433.097 505.363 436.138 C 505.347 439.179 502.87 441.632 499.828 441.616 C 496.789 441.601 494.336 439.124 494.351 436.082 C 494.367 433.041 496.845 430.589 499.886 430.605 Z " fill="rgb(55,53,53)"/><path d=" M 392.533 451.292 C 394.049 451.301 395.286 450.077 395.293 448.561 C 395.3 447.045 394.078 445.808 392.56 445.8 C 391.042 445.791 389.807 447.016 389.799 448.532 C 389.792 450.05 391.015 451.285 392.533 451.292 Z " fill="rgb(197,197,197)"/><path d=" M 392.569 444.11 C 390.123 444.097 388.121 446.078 388.11 448.523 C 388.098 450.97 390.077 452.97 392.524 452.983 C 394.969 452.996 396.969 451.015 396.982 448.57 C 396.995 446.123 395.016 444.122 392.569 444.11 Z  M 392.56 445.8 C 394.078 445.808 395.302 447.045 395.293 448.561 C 395.286 450.077 394.049 451.301 392.533 451.292 C 391.015 451.285 389.792 450.05 389.799 448.532 C 389.807 447.016 391.042 445.791 392.56 445.8 Z " fill="rgb(55,53,53)"/><path d=" M 396.899 466.405 C 395.185 466.396 393.79 467.779 393.781 469.495 C 393.772 471.209 395.154 472.606 396.869 472.615 C 398.583 472.624 399.98 471.241 399.989 469.525 C 399.998 467.811 398.615 466.414 396.899 466.405 Z " fill="rgb(197,197,197)"/><path d=" M 396.908 464.716 C 394.267 464.702 392.102 466.842 392.09 469.486 C 392.077 472.129 394.216 474.292 396.86 474.304 C 399.505 474.319 401.665 472.18 401.68 469.534 C 401.694 466.891 399.553 464.729 396.908 464.716 Z  M 396.899 466.405 C 398.615 466.414 399.998 467.811 399.989 469.525 C 399.98 471.241 398.583 472.624 396.869 472.615 C 395.154 472.606 393.772 471.209 393.781 469.495 C 393.79 467.779 395.185 466.398 396.899 466.405 Z " fill="rgb(55,53,53)"/><path d=" M 446.164 504.187 C 444.823 504.18 443.728 505.264 443.721 506.606 C 443.714 507.949 444.798 509.042 446.139 509.049 C 447.481 509.056 448.575 507.972 448.583 506.631 C 448.588 505.289 447.506 504.195 446.164 504.187 Z " fill="rgb(197,197,197)"/><path d=" M 446.173 502.498 C 443.901 502.488 442.043 504.326 442.032 506.597 C 442.019 508.869 443.858 510.727 446.13 510.738 C 448.403 510.751 450.259 508.91 450.272 506.64 C 450.284 504.367 448.444 502.509 446.173 502.498 Z  M 446.164 504.187 C 447.506 504.195 448.588 505.289 448.583 506.631 C 448.575 507.972 447.481 509.056 446.139 509.049 C 444.798 509.042 443.714 507.947 443.721 506.606 C 443.728 505.264 444.823 504.18 446.164 504.187 Z " fill="rgb(55,53,53)"/><path d=" M 678.445 503.579 C 676.111 503.566 674.208 505.45 674.197 507.781 C 674.187 510.115 676.066 512.017 678.4 512.029 C 680.734 512.042 682.637 510.158 682.648 507.825 C 682.66 505.493 680.779 503.59 678.445 503.579 Z " fill="rgb(197,197,197)"/><path d=" M 678.454 501.888 C 675.191 501.872 672.524 504.512 672.506 507.774 C 672.49 511.035 675.13 513.702 678.391 513.718 C 681.654 513.736 684.32 511.095 684.337 507.834 C 684.355 504.573 681.715 501.904 678.454 501.888 Z  M 678.445 503.579 C 680.779 503.59 682.66 505.493 682.648 507.825 C 682.637 510.158 680.734 512.042 678.4 512.029 C 676.066 512.017 674.187 510.115 674.197 507.781 C 674.208 505.45 676.111 503.566 678.445 503.579 Z " fill="rgb(55,53,53)"/><path d=" M 726.043 323.094 C 723.36 323.079 721.174 325.243 721.161 327.924 C 721.149 330.607 723.311 332.793 725.994 332.808 C 728.675 332.82 730.861 330.658 730.876 327.975 C 730.89 325.292 728.726 323.107 726.043 323.094 Z " fill="rgb(197,197,197)"/><path d=" M 726.052 321.403 C 722.441 321.384 719.49 324.307 719.47 327.917 C 719.452 331.527 722.375 334.479 725.985 334.497 C 729.595 334.515 732.546 331.594 732.565 327.984 C 732.583 324.374 729.662 321.421 726.052 321.403 Z  M 726.043 323.094 C 728.726 323.107 730.89 325.292 730.876 327.975 C 730.861 330.658 728.675 332.82 725.994 332.808 C 723.311 332.793 721.149 330.607 721.161 327.924 C 721.174 325.243 723.36 323.079 726.043 323.094 Z " fill="rgb(55,53,53)"/><path d=" M 148.802 626.74 C 145.892 626.725 143.522 629.07 143.508 631.98 C 143.492 634.888 145.84 637.257 148.748 637.273 C 151.656 637.288 154.027 634.942 154.042 632.034 C 154.056 629.124 151.71 626.754 148.802 626.74 Z " fill="rgb(197,197,197)"/><path d=" M 148.811 625.049 C 144.974 625.029 141.837 628.135 141.817 631.971 C 141.799 635.808 144.904 638.943 148.739 638.964 C 152.574 638.982 155.713 635.878 155.731 632.041 C 155.751 628.205 152.646 625.069 148.811 625.049 Z  M 148.802 626.74 C 151.71 626.754 154.056 629.124 154.042 632.034 C 154.027 634.942 151.656 637.288 148.748 637.273 C 145.84 637.257 143.492 634.888 143.508 631.98 C 143.522 629.07 145.892 626.725 148.802 626.74 Z " fill="rgb(55,53,53)"/><path d=" M 201.007 573.218 C 201.016 571.543 199.666 570.179 197.991 570.17 C 196.315 570.161 194.952 571.513 194.943 573.187 C 194.934 574.862 196.284 576.227 197.961 576.236 C 199.635 576.243 200.998 574.893 201.007 573.218 Z " fill="rgb(197,197,197)"/><path d=" M 197.999 568.479 C 195.395 568.466 193.267 570.575 193.252 573.178 C 193.238 575.782 195.346 577.912 197.952 577.925 C 200.555 577.937 202.686 575.831 202.698 573.227 C 202.711 570.621 200.604 568.493 197.999 568.479 Z  M 197.991 570.17 C 199.666 570.179 201.016 571.543 201.007 573.218 C 200.998 574.893 199.635 576.243 197.961 576.236 C 196.284 576.227 194.934 574.862 194.943 573.187 C 194.95 571.513 196.315 570.161 197.991 570.17 Z " fill="rgb(55,53,53)"/><path d=" M 295.247 567.877 C 292.495 567.865 290.254 570.083 290.239 572.834 C 290.225 575.588 292.445 577.829 295.196 577.844 C 297.949 577.858 300.191 575.638 300.206 572.887 C 300.22 570.134 298 567.892 295.247 567.877 Z " fill="rgb(197,197,197)"/><path d=" M 295.256 566.188 C 291.577 566.169 288.568 569.147 288.55 572.827 C 288.53 576.506 291.509 579.515 295.189 579.535 C 298.868 579.553 301.877 576.574 301.895 572.896 C 301.913 569.215 298.936 566.206 295.256 566.188 Z  M 295.247 567.877 C 298 567.892 300.22 570.134 300.206 572.887 C 300.191 575.638 297.949 577.858 295.196 577.844 C 292.445 577.829 290.225 575.588 290.239 572.834 C 290.254 570.083 292.495 567.865 295.247 567.877 Z " fill="rgb(55,53,53)"/><path d=" M 438.827 635.422 C 436.427 635.41 434.471 637.347 434.458 639.747 C 434.446 642.148 436.382 644.103 438.782 644.116 C 441.182 644.128 443.138 642.191 443.15 639.791 C 443.163 637.39 441.227 635.435 438.827 635.422 Z " fill="rgb(197,197,197)"/><path d=" M 438.834 633.732 C 435.506 633.715 432.784 636.409 432.766 639.738 C 432.751 643.066 435.445 645.789 438.773 645.805 C 442.102 645.823 444.825 643.129 444.839 639.8 C 444.857 636.47 442.163 633.75 438.834 633.732 Z  M 438.827 635.422 C 441.227 635.435 443.163 637.39 443.15 639.791 C 443.138 642.191 441.182 644.128 438.782 644.116 C 436.382 644.103 434.446 642.148 434.458 639.747 C 434.469 637.345 436.427 635.41 438.827 635.422 Z " fill="rgb(55,53,53)"/><path d=" M 318.806 524.976 C 317.043 524.967 315.608 526.389 315.599 528.15 C 315.59 529.913 317.011 531.348 318.774 531.357 C 320.535 531.366 321.97 529.945 321.979 528.183 C 321.988 526.422 320.567 524.985 318.806 524.976 Z " fill="rgb(197,197,197)"/><path d=" M 318.813 523.287 C 316.123 523.272 313.923 525.451 313.908 528.141 C 313.894 530.833 316.073 533.033 318.765 533.046 C 321.455 533.06 323.655 530.882 323.67 528.192 C 323.684 525.5 321.505 523.299 318.813 523.287 Z  M 318.806 524.976 C 320.567 524.985 321.988 526.422 321.979 528.183 C 321.972 529.945 320.535 531.366 318.774 531.357 C 317.011 531.348 315.59 529.913 315.599 528.15 C 315.608 526.389 317.043 524.967 318.806 524.976 Z " fill="rgb(55,53,53)"/><path d=" M 381.378 241.541 C 379.269 241.53 377.553 243.229 377.541 245.338 C 377.532 247.445 379.23 249.162 381.338 249.173 C 383.447 249.184 385.165 247.484 385.175 245.376 C 385.186 243.269 383.485 241.551 381.378 241.541 Z " fill="rgb(197,197,197)"/><path d=" M 381.387 239.851 C 378.349 239.835 375.868 242.293 375.852 245.329 C 375.836 248.365 378.293 250.848 381.329 250.864 C 384.365 250.879 386.848 248.421 386.864 245.385 C 386.881 242.348 384.423 239.866 381.387 239.851 Z  M 381.378 241.541 C 383.485 241.551 385.186 243.269 385.175 245.376 C 385.165 247.484 383.447 249.184 381.338 249.173 C 379.23 249.162 377.532 247.445 377.541 245.338 C 377.552 243.229 379.269 241.53 381.378 241.541 Z " fill="rgb(55,53,53)"/><path d=" M 479.024 271.92 C 477.459 271.912 476.183 273.174 476.175 274.74 C 476.166 276.305 477.429 277.581 478.993 277.589 C 480.56 277.597 481.835 276.334 481.844 274.769 C 481.851 273.203 480.589 271.928 479.024 271.92 Z " fill="rgb(197,197,197)"/><path d=" M 479.033 270.23 C 476.537 270.217 474.497 272.236 474.483 274.732 C 474.47 277.227 476.492 279.266 478.984 279.279 C 481.48 279.292 483.522 277.272 483.535 274.777 C 483.547 272.283 481.527 270.242 479.033 270.23 Z  M 479.024 271.92 C 480.589 271.928 481.851 273.203 481.844 274.769 C 481.835 276.334 480.56 277.597 478.993 277.589 C 477.429 277.581 476.166 276.305 476.175 274.74 C 476.183 273.174 477.459 271.912 479.024 271.92 Z " fill="rgb(55,53,53)"/><path d=" M 478.905 186.2 C 482.274 186.218 485.022 183.499 485.038 180.13 C 485.054 176.76 482.339 174.014 478.968 173.997 C 475.597 173.979 472.851 176.698 472.833 180.068 C 472.817 183.438 475.534 186.184 478.905 186.2 Z " fill="rgb(197,197,197)"/><path d=" M 478.975 172.307 C 474.681 172.285 471.168 175.762 471.144 180.059 C 471.123 184.356 474.6 187.869 478.896 187.891 C 483.192 187.912 486.705 184.435 486.729 180.138 C 486.75 175.842 483.272 172.329 478.975 172.307 Z  M 478.968 173.997 C 482.337 174.014 485.054 176.76 485.038 180.13 C 485.022 183.499 482.274 186.218 478.905 186.2 C 475.534 186.184 472.817 183.438 472.833 180.068 C 472.851 176.698 475.597 173.979 478.968 173.997 Z " fill="rgb(55,53,53)"/><path d=" M 575.935 228.158 C 574.216 228.149 572.815 229.536 572.806 231.256 C 572.797 232.976 574.183 234.377 575.905 234.386 C 577.624 234.395 579.025 233.008 579.034 231.288 C 579.043 229.568 577.655 228.167 575.935 228.158 Z " fill="rgb(197,197,197)"/><path d=" M 575.944 226.467 C 573.296 226.454 571.13 228.599 571.115 231.247 C 571.103 233.897 573.247 236.063 575.896 236.076 C 578.544 236.09 580.711 233.946 580.725 231.297 C 580.738 228.648 578.595 226.481 575.944 226.467 Z  M 575.935 228.158 C 577.657 228.167 579.043 229.568 579.034 231.288 C 579.025 233.008 577.624 234.395 575.905 234.386 C 574.183 234.377 572.797 232.976 572.806 231.256 C 572.815 229.536 574.216 228.149 575.935 228.158 Z " fill="rgb(55,53,53)"/><path d=" M 827.767 629.061 C 825.545 629.05 823.732 630.843 823.721 633.067 C 823.71 635.291 825.504 637.102 827.728 637.115 C 829.95 637.126 831.763 635.332 831.774 633.109 C 831.786 630.885 829.993 629.073 827.767 629.061 Z " fill="rgb(197,197,197)"/><path d=" M 827.776 627.372 C 824.625 627.356 822.048 629.907 822.032 633.058 C 822.014 636.211 824.566 638.788 827.719 638.804 C 830.87 638.82 833.448 636.269 833.464 633.116 C 833.481 629.965 830.929 627.388 827.776 627.372 Z  M 827.767 629.061 C 829.993 629.073 831.786 630.885 831.774 633.109 C 831.763 635.332 829.95 637.126 827.728 637.115 C 825.504 637.102 823.71 635.291 823.721 633.067 C 823.732 630.843 825.545 629.05 827.767 629.061 Z " fill="rgb(55,53,53)"/><path d=" M 823.276 409.524 C 820.593 409.509 818.408 411.673 818.395 414.354 C 818.382 417.037 820.545 419.223 823.228 419.238 C 825.909 419.25 828.095 417.088 828.109 414.405 C 828.124 411.722 825.959 409.537 823.276 409.524 Z " fill="rgb(197,197,197)"/><path d=" M 827.566 409.459 C 826.422 408.454 824.925 407.841 823.285 407.833 C 819.675 407.814 816.724 410.737 816.704 414.347 C 816.686 417.957 819.609 420.909 823.219 420.927 C 826.829 420.945 829.78 418.024 829.798 414.414 C 829.808 412.443 828.942 410.668 827.566 409.459 Z  M 823.276 409.524 C 825.959 409.537 828.124 411.722 828.109 414.405 C 828.095 417.088 825.909 419.25 823.228 419.238 C 820.545 419.223 818.382 417.037 818.395 414.354 C 818.408 411.673 820.593 409.509 823.276 409.524 Z " fill="rgb(55,53,53)"/><path d=" M 827.471 485.99 C 824.788 485.975 822.602 488.139 822.589 490.82 C 822.577 493.503 824.739 495.689 827.422 495.704 C 830.103 495.716 832.289 493.554 832.304 490.871 C 832.318 488.188 830.154 486.003 827.471 485.99 Z " fill="rgb(197,197,197)"/><path d=" M 827.481 484.3 C 823.871 484.281 820.919 487.204 820.9 490.814 C 820.882 494.424 823.804 497.375 827.414 497.393 C 831.024 497.411 833.976 494.491 833.994 490.881 C 834.012 487.27 831.091 484.318 827.481 484.3 Z  M 827.472 485.99 C 830.155 486.004 832.319 488.189 832.305 490.872 C 832.29 493.554 830.104 495.717 827.423 495.704 C 824.74 495.69 822.578 493.504 822.59 490.821 C 822.603 488.14 824.789 485.976 827.472 485.99 Z " fill="rgb(55,53,53)"/><path d=" M 845.477 179.883 C 842.794 179.869 840.608 182.033 840.596 184.714 C 840.583 187.397 842.746 189.583 845.429 189.597 C 848.11 189.61 850.296 187.447 850.31 184.764 C 850.324 182.081 848.16 179.896 845.477 179.883 Z " fill="rgb(197,197,197)"/><path d=" M 845.487 178.193 C 841.877 178.175 838.926 181.097 838.906 184.708 C 838.888 188.318 841.81 191.269 845.42 191.287 C 849.031 191.305 851.982 188.385 852 184.774 C 852.018 181.164 849.097 178.212 845.487 178.193 Z  M 845.478 179.884 C 848.161 179.897 850.325 182.082 850.311 184.765 C 850.297 187.448 848.111 189.611 845.429 189.598 C 842.747 189.584 840.584 187.398 840.597 184.715 C 840.609 182.034 842.795 179.87 845.478 179.884 Z " fill="rgb(55,53,53)"/></svg>